HIERARCHY
ROOT Hips
{
	OFFSET 0.000000 0.000000 0.000000 
	CHANNELS 6 Xposition Yposition Zposition Zrotation Yrotation Xrotation
	JOINT LeftUpLeg
	{
		OFFSET 1.363060 -1.794630 0.839290 
		CHANNELS 3 Zrotation Yrotation Xrotation
		JOINT LeftLeg
		{
			OFFSET 2.448110 -6.726130 0.000000 
			CHANNELS 3 Zrotation Yrotation Xrotation
			JOINT LeftFoot
			{
				OFFSET 2.562200 -7.039590 0.000000 
				CHANNELS 3 Zrotation Yrotation Xrotation
				JOINT LeftToeBase
				{
					OFFSET 0.157640 -0.433110 2.322550 
					CHANNELS 3 Zrotation Yrotation Xrotation
					End Site
					{
						OFFSET 0.000000 0.000000 0.000000 
					}
				}
			}
		}
	}
	JOINT RightUpLeg
	{
		OFFSET -1.305520 -1.794630 0.839290 
		CHANNELS 3 Zrotation Yrotation Xrotation
		JOINT RightLeg
		{
			OFFSET -2.542530 -6.985550 0.000000 
			CHANNELS 3 Zrotation Yrotation Xrotation
			JOINT RightFoot
			{
				OFFSET -2.568260 -7.056230 0.000000 
				CHANNELS 3 Zrotation Yrotation Xrotation
				JOINT RightToeBase
				{
					OFFSET -0.164730 -0.452590 2.363150 
					CHANNELS 3 Zrotation Yrotation Xrotation
					End Site
					{
						OFFSET 0.000000 0.000000 0.000000 
					}
				}
			}
		}
	}
	JOINT Spine
	{
		OFFSET 0.028270 2.035590 -0.193380 
		CHANNELS 3 Zrotation Yrotation Xrotation
		JOINT Spine1
		{
			OFFSET 0.056720 2.048850 -0.042750 
			CHANNELS 3 Zrotation Yrotation Xrotation
			JOINT Neck1
			{
				OFFSET -0.054170 1.746240 0.172020 
				CHANNELS 3 Zrotation Yrotation Xrotation
				JOINT Head
				{
					OFFSET 0.104070 1.761360 -0.123970 
					CHANNELS 3 Zrotation Yrotation Xrotation
					End Site
					{
						OFFSET 0.000000 0.000000 0.000000 
					}
				}
			}
			JOINT LeftArm
			{
				OFFSET 3.362410 1.200890 -0.311210 
				CHANNELS 3 Zrotation Yrotation Xrotation
				JOINT LeftForeArm
				{
					OFFSET 4.983000 -0.000000 -0.000000 
					CHANNELS 3 Zrotation Yrotation Xrotation
					JOINT LeftHand
					{
						OFFSET 3.483560 -0.000000 -0.000000 
						CHANNELS 3 Zrotation Yrotation Xrotation
						JOINT LeftHandIndex1
						{
							OFFSET 0.715260 -0.000000 -0.000000 
							CHANNELS 3 Zrotation Yrotation Xrotation
							End Site
							{
								OFFSET 0.000000 0.000000 0.000000 
							}
						}
					}
				}
			}
			JOINT RightArm
			{
				OFFSET -3.136600 1.374050 -0.404650 
				CHANNELS 3 Zrotation Yrotation Xrotation
				JOINT RightForeArm
				{
					OFFSET -5.241900 -0.000000 -0.000000 
					CHANNELS 3 Zrotation Yrotation Xrotation
					JOINT RightHand
					{
						OFFSET -3.444170 -0.000000 -0.000000 
						CHANNELS 3 Zrotation Yrotation Xrotation
						JOINT RightHandIndex1
						{
							OFFSET -0.622530 -0.000000 -0.000000 
							CHANNELS 3 Zrotation Yrotation Xrotation
							End Site
							{
								OFFSET 0.000000 0.000000 0.000000 
							}
						}
					}
				}
			}
		}
	}
}
MOTION
Frames: 7
Frame Time: 0.041667
8.545575 18.002089 14.795976 -175.504536 3.047302 -166.427211 -15.936280 -2.930417 -29.320981 1.291042 5.705307 16.414667 0.118483 -4.317125 4.563151 0.410400 -4.112500 -11.393300 26.514761 -0.301971 -3.586571 -3.768590 -10.668930 30.864769 -0.710946 3.095389 -3.685262 -1.099800 6.663900 -18.723500 0.825941 3.154418 0.425977 0.423220 1.423392 1.494084 8.146466 -4.733853 11.254190 3.640100 -2.254500 9.667800 -86.378050 -0.023729 25.620384 16.072876 -24.828880 -2.958295 0.961407 -0.553181 5.222368 -7.125000 0.000000 0.000000 91.833108 2.442427 14.674808 -15.385746 25.299479 -3.241379 0.527667 0.271296 -4.441723 7.125000 0.000000 0.000000 
8.517516 18.002186 14.697380 -175.715485 3.407002 -166.703763 -16.327323 -2.749576 -28.410651 1.270158 5.641667 16.241659 0.110670 -4.107247 4.015385 0.540100 -4.708700 -13.079500 25.849731 -0.375327 -4.097666 -4.068133 -11.179067 32.608515 -0.740140 3.503572 -2.676781 -1.013300 6.404600 -17.963100 0.635842 3.318280 0.415033 0.313653 1.502040 1.404420 7.983718 -4.821859 11.511886 3.535700 -2.298000 9.740200 -86.157576 -0.097451 25.652073 16.062717 -24.842362 -2.999011 0.970351 -0.529269 5.139597 -7.125000 0.000000 0.000000 91.976149 2.239966 14.844340 -15.510858 25.473955 -3.304259 0.508994 0.291461 -4.582887 7.125000 0.000000 0.000000 
8.494426 18.031317 14.601317 -175.794717 3.706185 -166.574336 -16.632553 -2.450288 -28.232610 1.264835 5.623412 16.185113 0.110156 -4.238643 3.870618 0.590100 -4.918400 -13.675900 25.428500 -0.139658 -5.074684 -4.390379 -11.665775 34.357044 -0.722706 3.499650 -1.551618 -0.769600 5.601800 -15.633300 0.581693 3.374765 0.417434 0.376440 1.525965 1.510884 8.025575 -4.821353 11.649685 3.567200 -2.291400 9.849700 -86.165514 -0.356443 25.597334 16.157068 -24.979611 -3.021650 0.978496 -0.523593 5.122861 -7.125000 0.000000 0.000000 91.984341 2.430109 15.172150 -15.627603 25.669179 -3.366685 0.509568 0.286512 -4.576296 7.125000 0.000000 0.000000 
8.472018 18.024886 14.514510 -175.762487 3.915502 -166.418704 -16.783035 -2.076106 -28.016476 1.245608 5.560979 15.996680 0.109459 -4.380031 3.719594 0.513200 -4.591900 -12.748100 25.130539 0.087980 -6.156627 -4.736292 -12.145000 36.144937 -0.710419 3.491008 0.160420 -0.576400 4.861700 -13.514700 0.557685 3.403816 0.349866 0.408017 1.539736 1.511892 8.096454 -4.906221 12.031766 3.598700 -2.320800 10.060900 -86.142895 -0.409440 25.577126 16.302531 -25.201881 -3.080674 0.977897 -0.527590 5.154459 -7.125000 0.000000 0.000000 92.024998 2.611861 15.334848 -15.610332 25.676331 -3.365525 0.527088 0.257636 -4.503425 7.125000 0.000000 0.000000 
8.447467 18.039890 14.428385 -175.950083 3.905864 -166.716977 -17.334419 -1.358065 -27.607690 1.240813 5.521776 15.891750 0.109307 -4.999713 3.557954 0.359900 -3.854200 -10.666700 24.594136 -0.148303 -6.834127 -5.071049 -12.605381 37.861658 -0.736091 3.685036 1.795073 -0.493100 4.502300 -12.494300 0.509469 3.294352 0.401648 0.456457 1.478808 1.438335 8.415754 -4.966189 11.992768 3.730200 -2.326300 10.080900 -86.063236 -0.489483 25.772709 16.416625 -25.379269 -3.134247 0.970142 -0.537222 4.980909 -7.125000 0.000000 0.000000 91.998197 2.770140 15.803087 -15.596344 25.676187 -3.365329 0.540211 0.235550 -4.576812 7.125000 0.000000 0.000000 
8.427981 18.033070 14.346450 -176.280679 4.123252 -166.921906 -17.851176 -1.039429 -26.947216 1.219017 5.446888 15.681887 0.107657 -4.983490 3.173676 0.320700 -3.640200 -10.066500 23.871798 -0.107425 -7.657954 -5.446368 -13.086441 39.706664 -0.761546 3.790852 3.123762 -0.377500 3.946100 -10.924900 0.435159 3.298678 0.413377 0.654133 1.476770 1.345337 8.285114 -4.905448 11.903569 3.686100 -2.308600 10.042100 -86.020543 -0.586841 25.971817 16.461918 -25.458958 -3.166160 0.960085 -0.549383 4.794309 -7.125000 0.000000 0.000000 91.922460 2.686543 16.538679 -15.789159 25.956080 -3.461017 0.531913 0.247842 -4.660675 7.125000 0.000000 0.000000 
8.412393 18.036383 14.264124 -176.544058 4.521778 -166.733947 -18.325114 -0.752268 -26.849681 1.206405 5.413054 15.579128 0.107418 -4.921441 2.822038 0.335200 -3.720900 -10.292700 23.196761 0.300022 -8.825256 -5.839669 -13.538309 41.537639 -0.785350 3.738353 4.646022 -0.281600 3.412900 -9.430500 0.337595 3.415472 0.193202 0.841358 1.538124 1.103930 7.960059 -4.852340 12.143652 3.555500 -2.312700 10.078700 -85.952867 -0.405429 26.027113 16.560009 -25.618944 -3.234998 0.961271 -0.543065 4.713471 -7.125000 0.000000 0.000000 91.935204 2.272487 17.069737 -16.090855 26.379859 -3.602822 0.520020 0.269119 -4.791661 7.125000 0.000000 0.000000 
